<svg id="Layer_1" data-name="Layer 1" xmlns="http://www.w3.org/2000/svg" xmlns:xlink="http://www.w3.org/1999/xlink" viewBox="0 0 414.79 98.67"><defs><style>.cls-1{fill:#fff;}.cls-2,.cls-3,.cls-4,.cls-5,.cls-6{fill:none;stroke-linecap:round;stroke-linejoin:round;stroke-width:4px;}.cls-2{stroke:url(#linear-gradient);}.cls-3{stroke:url(#linear-gradient-2);}.cls-4{stroke:url(#linear-gradient-3);}.cls-5{stroke:url(#linear-gradient-4);}.cls-6{stroke:url(#linear-gradient-5);}</style><linearGradient id="linear-gradient" x1="15.32" y1="49.86" x2="54.62" y2="49.86" gradientUnits="userSpaceOnUse"><stop offset="0" stop-color="#fff"/><stop offset="1" stop-color="#fff"/></linearGradient><linearGradient id="linear-gradient-2" x1="50.62" y1="49.86" x2="89.92" y2="49.86" xlink:href="#linear-gradient"/><linearGradient id="linear-gradient-3" x1="50.67" y1="39.78" x2="89.2" y2="39.78" gradientUnits="userSpaceOnUse"><stop offset="0" stop-color="#fff"/><stop offset="0.35" stop-color="#fff" stop-opacity="0.99"/><stop offset="0.47" stop-color="#fff" stop-opacity="0.97"/><stop offset="0.56" stop-color="#fff" stop-opacity="0.92"/><stop offset="0.63" stop-color="#fff" stop-opacity="0.85"/><stop offset="0.69" stop-color="#fff" stop-opacity="0.77"/><stop offset="0.75" stop-color="#fff" stop-opacity="0.66"/><stop offset="0.8" stop-color="#fff" stop-opacity="0.53"/><stop offset="0.84" stop-color="#fff" stop-opacity="0.39"/><stop offset="0.88" stop-color="#fff" stop-opacity="0.22"/><stop offset="0.92" stop-color="#fff" stop-opacity="0.04"/><stop offset="0.93" stop-color="#fff" stop-opacity="0"/></linearGradient><linearGradient id="linear-gradient-4" x1="15.32" y1="49.86" x2="54.62" y2="49.86" gradientUnits="userSpaceOnUse"><stop offset="0" stop-color="#fff"/><stop offset="0.15" stop-color="#fff"/><stop offset="1" stop-color="#fff"/></linearGradient><linearGradient id="linear-gradient-5" x1="50.67" y1="59.52" x2="88.84" y2="59.52" xlink:href="#linear-gradient-3"/></defs><title>Artboard 6</title><path class="cls-1" d="M142.85,55l.57,1.37q.26-.7.55-1.39a14.05,14.05,0,0,1,.63-1.32l12.67-23a1.38,1.38,0,0,1,.69-.73,3.36,3.36,0,0,1,1.06-.13h3.73V67.14h-4.43V39.69q0-.55,0-1.17t.08-1.28l-12.8,23.36a1.94,1.94,0,0,1-1.82,1.17h-.73a1.94,1.94,0,0,1-1.82-1.17L128.15,37.16q.08.68.12,1.33t0,1.2V67.14h-4.43V29.78h3.73a3.24,3.24,0,0,1,1,.13,1.5,1.5,0,0,1,.7.73l12.9,23Q142.56,54.26,142.85,55Z"/><path class="cls-1" d="M176.69,32.44a3,3,0,0,1-.27,1.26,3.65,3.65,0,0,1-.73,1,3.35,3.35,0,0,1-1.07.72,3.26,3.26,0,0,1-1.29.26,3.07,3.07,0,0,1-1.26-.26,3.28,3.28,0,0,1-1-.72,3.55,3.55,0,0,1-.7-1,3.08,3.08,0,0,1-.26-1.26,3.26,3.26,0,0,1,.26-1.29,3.46,3.46,0,0,1,.7-1.07,3.28,3.28,0,0,1,1-.72,3.07,3.07,0,0,1,1.26-.26,3.26,3.26,0,0,1,1.29.26,3.35,3.35,0,0,1,1.07.72,3.55,3.55,0,0,1,.73,1.07A3.13,3.13,0,0,1,176.69,32.44Zm-1,8.29V67.14h-4.64V40.73Z"/><path class="cls-1" d="M188,28.74v22.6h1.2a2.32,2.32,0,0,0,.87-.14,2.12,2.12,0,0,0,.74-.59l8.34-8.94a3.13,3.13,0,0,1,.77-.69,2.06,2.06,0,0,1,1.08-.25h4.2l-9.72,10.35a5.88,5.88,0,0,1-1.51,1.38,4.84,4.84,0,0,1,.85.72,6.76,6.76,0,0,1,.72.93l10.32,13h-4.14a2.47,2.47,0,0,1-1-.2,1.72,1.72,0,0,1-.74-.72l-8.68-10.82a2.07,2.07,0,0,0-.77-.72,3,3,0,0,0-1.16-.17H188V67.14h-4.67V28.74Z"/><path class="cls-1" d="M219.12,40.31a11.89,11.89,0,0,1,4.39.8A9.94,9.94,0,0,1,227,43.4a10.51,10.51,0,0,1,2.31,3.7,14.1,14.1,0,0,1,.83,5,3,3,0,0,1-.23,1.46,1,1,0,0,1-.89.36H211.38a14.57,14.57,0,0,0,.68,4.35,8.89,8.89,0,0,0,1.72,3.09,6.89,6.89,0,0,0,2.61,1.85,8.94,8.94,0,0,0,3.39.61,9.94,9.94,0,0,0,3-.4,14.36,14.36,0,0,0,2.18-.87,16.69,16.69,0,0,0,1.52-.87,2,2,0,0,1,1.06-.4,1,1,0,0,1,.89.44l1.3,1.69a8.82,8.82,0,0,1-2.06,1.81,12.82,12.82,0,0,1-2.57,1.26,16.31,16.31,0,0,1-2.83.74,17.29,17.29,0,0,1-2.89.25,13.43,13.43,0,0,1-5-.93,11.07,11.07,0,0,1-4-2.71,12.43,12.43,0,0,1-2.62-4.42,18,18,0,0,1-.94-6,15.38,15.38,0,0,1,.85-5.16,12.15,12.15,0,0,1,2.44-4.16A11.21,11.21,0,0,1,214,41.32,12.75,12.75,0,0,1,219.12,40.31Zm.1,3.42a7.12,7.12,0,0,0-5.29,1.94,9.14,9.14,0,0,0-2.4,5.38H226a9.15,9.15,0,0,0-.46-3,6.64,6.64,0,0,0-1.33-2.32,5.94,5.94,0,0,0-2.12-1.51A7.18,7.18,0,0,0,219.23,43.73Z"/><path class="cls-1" d="M282.65,48.47a21,21,0,0,1-1.33,7.64A16.94,16.94,0,0,1,277.57,62a16.71,16.71,0,0,1-5.83,3.79,20.32,20.32,0,0,1-7.52,1.34H250.27V29.78h13.95a20.32,20.32,0,0,1,7.52,1.34,16.63,16.63,0,0,1,5.83,3.81,17.08,17.08,0,0,1,3.75,5.9A21,21,0,0,1,282.65,48.47Zm-5.19,0a18.75,18.75,0,0,0-.94-6.15,13,13,0,0,0-2.66-4.59,11.35,11.35,0,0,0-4.17-2.87,14.49,14.49,0,0,0-5.47-1h-8.89V63h8.89a14.48,14.48,0,0,0,5.47-1,11.41,11.41,0,0,0,4.17-2.85,12.83,12.83,0,0,0,2.66-4.57A18.75,18.75,0,0,0,277.46,48.47Z"/><path class="cls-1" d="M304.94,67.14a2,2,0,0,1-1-.22,1.5,1.5,0,0,1-.57-.87l-.52-2.48q-1,.94-2,1.68a12.28,12.28,0,0,1-2.09,1.25,11.05,11.05,0,0,1-2.32.78,12.79,12.79,0,0,1-2.75.27,9.5,9.5,0,0,1-2.89-.43,6.68,6.68,0,0,1-2.36-1.29,6.07,6.07,0,0,1-1.59-2.18,7.6,7.6,0,0,1-.59-3.12,5.81,5.81,0,0,1,.86-3A7.54,7.54,0,0,1,289.82,55a18.32,18.32,0,0,1,5-1.84,38.38,38.38,0,0,1,7.61-.82V50.25a7.06,7.06,0,0,0-1.33-4.65A4.79,4.79,0,0,0,297.25,44a8.35,8.35,0,0,0-2.88.43,10.8,10.8,0,0,0-2,1q-.85.53-1.46,1a2.11,2.11,0,0,1-1.21.43,1.33,1.33,0,0,1-.81-.25,2.27,2.27,0,0,1-.57-.61l-.83-1.49a15.09,15.09,0,0,1,4.72-3.15,14.57,14.57,0,0,1,5.6-1,10,10,0,0,1,3.94.73,8.08,8.08,0,0,1,2.89,2,8.62,8.62,0,0,1,1.77,3.15,13.15,13.15,0,0,1,.6,4.07V67.14ZM295,64.3a9.47,9.47,0,0,0,2.24-.25,8.82,8.82,0,0,0,1.92-.7,9.71,9.71,0,0,0,1.72-1.12,16,16,0,0,0,1.6-1.5V55.25a38.76,38.76,0,0,0-5.46.51,15.56,15.56,0,0,0-3.68,1.06,5.08,5.08,0,0,0-2.06,1.54,3.31,3.31,0,0,0-.64,2,4.37,4.37,0,0,0,.34,1.8,3.33,3.33,0,0,0,.93,1.24,3.71,3.71,0,0,0,1.38.7A6.32,6.32,0,0,0,295,64.3Z"/><path class="cls-1" d="M314.06,67.14V40.73h2.66a1.47,1.47,0,0,1,1,.29,1.76,1.76,0,0,1,.39,1l.29,4a11.83,11.83,0,0,1,3.09-4.24A6.77,6.77,0,0,1,326,40.26a7,7,0,0,1,1.6.18A4.31,4.31,0,0,1,329,41l-.34,3.47a.75.75,0,0,1-.78.65,5.37,5.37,0,0,1-1.07-.16,7.38,7.38,0,0,0-1.59-.16,6.26,6.26,0,0,0-2.24.38,5.37,5.37,0,0,0-1.76,1.09,7.49,7.49,0,0,0-1.37,1.76,15.4,15.4,0,0,0-1.1,2.4V67.14Z"/><path class="cls-1" d="M350.34,45.42a2.08,2.08,0,0,1-.42.44.94.94,0,0,1-.57.16,1.55,1.55,0,0,1-.86-.33q-.47-.33-1.16-.72a9.35,9.35,0,0,0-1.69-.72,9.14,9.14,0,0,0-5.9.37,6.62,6.62,0,0,0-2.49,2,9,9,0,0,0-1.51,3.15,15.65,15.65,0,0,0-.51,4.15,15.13,15.13,0,0,0,.55,4.26,9.08,9.08,0,0,0,1.55,3.13,6.67,6.67,0,0,0,2.42,1.93,7.45,7.45,0,0,0,3.19.66,7.67,7.67,0,0,0,4.6-1.3q.72-.5,1.2-.9a1.49,1.49,0,0,1,1-.4,1,1,0,0,1,.89.44l1.3,1.69a9.24,9.24,0,0,1-2,1.82,12,12,0,0,1-2.36,1.26,12.83,12.83,0,0,1-2.65.74,16.81,16.81,0,0,1-2.82.23,11.54,11.54,0,0,1-4.6-.91,10.48,10.48,0,0,1-3.69-2.65,12.38,12.38,0,0,1-2.45-4.26,18.83,18.83,0,0,1-.06-11.21,12.34,12.34,0,0,1,2.4-4.31,10.9,10.9,0,0,1,3.88-2.83,13,13,0,0,1,5.3-1,12.52,12.52,0,0,1,4.91.9,11.77,11.77,0,0,1,3.77,2.54Z"/><path class="cls-1" d="M356.86,67.14V28.74h4.67V44.28a14.24,14.24,0,0,1,3.75-2.88A10.05,10.05,0,0,1,370,40.31a9.53,9.53,0,0,1,3.82.72,7.39,7.39,0,0,1,2.76,2,9,9,0,0,1,1.68,3.17,13.78,13.78,0,0,1,.57,4.09V67.14H374.2V50.32a7.11,7.11,0,0,0-1.37-4.65A5.08,5.08,0,0,0,368.67,44a7.85,7.85,0,0,0-3.87,1,12.29,12.29,0,0,0-3.27,2.68V67.14Z"/><path class="cls-1" d="M396.77,40.31a11.89,11.89,0,0,1,4.39.8,9.94,9.94,0,0,1,3.49,2.29A10.51,10.51,0,0,1,407,47.1a14.1,14.1,0,0,1,.83,5,3,3,0,0,1-.23,1.46,1,1,0,0,1-.89.36H389a14.57,14.57,0,0,0,.68,4.35,8.89,8.89,0,0,0,1.72,3.09A6.89,6.89,0,0,0,394,63.24a8.94,8.94,0,0,0,3.39.61,9.94,9.94,0,0,0,3-.4,14.36,14.36,0,0,0,2.18-.87,16.69,16.69,0,0,0,1.52-.87,2,2,0,0,1,1.06-.4,1,1,0,0,1,.89.44l1.3,1.69a8.82,8.82,0,0,1-2.06,1.81,12.82,12.82,0,0,1-2.57,1.26,16.31,16.31,0,0,1-2.83.74,17.29,17.29,0,0,1-2.89.25,13.43,13.43,0,0,1-5-.93,11.07,11.07,0,0,1-4-2.71,12.43,12.43,0,0,1-2.62-4.42,18,18,0,0,1-.94-6,15.38,15.38,0,0,1,.85-5.16,12.15,12.15,0,0,1,2.44-4.16,11.21,11.21,0,0,1,3.88-2.76A12.75,12.75,0,0,1,396.77,40.31Zm.1,3.42a7.12,7.12,0,0,0-5.29,1.94,9.14,9.14,0,0,0-2.4,5.38h14.44a9.15,9.15,0,0,0-.46-3,6.64,6.64,0,0,0-1.33-2.32,5.94,5.94,0,0,0-2.12-1.51A7.18,7.18,0,0,0,396.87,43.73Z"/><polyline class="cls-2" points="52.62 90.62 17.32 70.24 17.32 29.48 52.62 9.1"/><path class="cls-3" d="M52.62,90.62l32.92-19a4.74,4.74,0,0,0,2.37-4.11V32.22a4.74,4.74,0,0,0-2.37-4.11L52.62,9.1Z"/><path class="cls-4" d="M87.2,29.89S71,39.08,52.67,49.67"/><polyline class="cls-5" points="52.62 90.62 52.62 9.1 29.16 49.73 17.32 29.48 17.32 70.24"/><path class="cls-6" d="M86.84,69.38S71.33,60.44,52.67,49.67"/></svg>